<svg viewBox="0 0 1155 194" xmlns="http://www.w3.org/2000/svg" xmlns:xlink="http://www.w3.org/1999/xlink" fill-rule="evenodd" clip-rule="evenodd" stroke-miterlimit="10"><path fill="none" d="M0 0h1154.96v193.44H0z"/><path fill="#ed1c24" d="M-17.077-10.56h441.58v204.818h-441.58z"/><path fill="url(#_Linear1)" d="M-.134-.678h1.258v1H-.134z" transform="matrix(91.71427 0 0 -91.7141 -4.755 121.09)"/><path fill="url(#_Linear2)" d="M-.037-.326h1.078V.678H-.037z" transform="matrix(101.74192 0 0 -101.74164 102.11 58.46)"/><path fill="#008060" d="M-17.077 179.4H98.318v469.234H-17.077z"/><path d="M106.534 86.434h8.299v-15.58c.687.127 1.545.19 2.518.19 4.521 0 8.814-1.398 11.619-4.387 2.174-2.417 3.434-5.914 3.434-10.239 0-4.006-1.431-7.567-3.835-9.73-2.576-2.416-6.353-3.434-11.447-3.434-4.579 0-8.07.382-10.588.89v42.29zm8.299-35.676c.572-.19 1.602-.318 3.033-.318 4.12 0 6.239 2.544 6.239 6.423 0 4.198-2.52 6.932-6.868 6.932-1.03 0-1.774-.064-2.404-.19V50.757zM148.487 87.07c6.41 0 13.45-4.579 13.45-16.407 0-9.539-5.209-15.962-13.107-15.962-7.956 0-13.736 6.041-13.736 16.344 0 10.047 5.608 16.025 13.335 16.025h.058zm.114-6.74c-3.32 0-4.979-4.134-4.979-9.476 0-4.515 1.258-9.412 4.979-9.412 3.491 0 4.808 4.897 4.808 9.412 0 5.278-1.66 9.475-4.75 9.475h-.058zM167.546 86.434h8.356v-15.77c0-.955.057-1.781.229-2.417.63-3.116 2.805-4.77 5.495-4.77.915 0 1.544.064 2.174.19v-8.775c-.63-.127-1.03-.19-1.774-.19-2.518 0-5.61 1.843-6.982 6.04h-.23l-.342-5.405h-7.155c.114 2.735.229 5.85.229 9.984v21.113zM190.783 49.614v5.723h-3.605v6.74h3.605v13.355c0 4.516.8 7.314 2.404 9.094 1.373 1.527 3.606 2.48 6.238 2.48 2.29 0 4.236-.318 5.323-.763l-.057-7.059c-.802.191-1.316.255-2.404.255-2.29 0-3.263-1.463-3.263-5.215V62.078h6.01v-6.741h-6.01v-8.33l-8.24 2.607zM234.739 55.337h-8.356v18.95c0 .827-.115 1.654-.343 2.227-.516 1.399-1.717 2.988-3.778 2.988-2.747 0-3.892-2.67-3.892-7.122V55.337h-8.356v18.442c0 9.221 3.548 13.291 9.1 13.291 4.407 0 6.926-2.734 8.07-4.706h.172l.401 4.07h7.211c-.115-2.67-.23-5.978-.23-9.857v-21.24zM266.561 64.812c0-4.387.115-7.186.23-9.475h-7.212l-.343 3.561h-.115c-1.316-2.48-3.549-4.197-6.925-4.197-6.41 0-11.733 6.296-11.733 16.407 0 8.395 4.178 15.072 10.931 15.072 2.862 0 5.38-1.336 6.812-3.752h.114v1.971c0 5.47-2.633 8.013-6.696 8.013-2.92 0-5.609-1.018-7.27-2.035l-1.66 7.059c2.405 1.335 5.782 2.098 9.158 2.098 4.121 0 7.956-.953 10.703-3.688 2.92-2.925 4.006-7.44 4.006-13.609V64.812zm-8.355 8.522c0 .827-.058 1.78-.286 2.544-.573 2.035-2.118 3.37-3.95 3.37-3.205 0-5.093-3.434-5.093-8.394 0-5.47 2.117-8.903 5.15-8.903 2.06 0 3.435 1.59 4.007 3.752.114.572.172 1.272.172 1.908v5.723zM298.097 55.337h-8.356v18.95c0 .827-.114 1.654-.343 2.227-.515 1.399-1.717 2.988-3.778 2.988-2.747 0-3.892-2.67-3.892-7.122V55.337h-8.355v18.442c0 9.221 3.547 13.291 9.1 13.291 4.407 0 6.925-2.734 8.07-4.706h.171l.401 4.07h7.211c-.114-2.67-.229-5.978-.229-9.857v-21.24zM328.374 73.97c.115-.763.286-2.162.286-4.006 0-8.204-3.434-15.263-11.618-15.263-8.642 0-13.22 8.013-13.22 16.662 0 9.666 5.093 15.644 13.964 15.644 3.492 0 6.811-.636 9.444-1.781l-1.145-6.36c-2.06.764-4.293 1.209-6.982 1.209-3.835 0-7.097-1.844-7.269-6.105h16.54zm-16.598-6.423c.173-2.734 1.546-6.486 4.808-6.486 3.434 0 4.35 3.688 4.35 6.486h-9.158zM332.552 84.908c1.89 1.272 4.98 2.099 8.242 2.099 7.384 0 11.447-4.007 11.447-9.984 0-4.198-2.06-7.314-6.983-9.476-3.204-1.463-4.178-2.226-4.178-3.688 0-1.527 1.145-2.544 3.205-2.544 2.118 0 4.179.89 5.38 1.59l1.488-6.487c-1.66-.89-4.235-1.717-7.211-1.717-6.582 0-10.76 4.388-10.76 10.112 0 3.434 1.832 6.868 7.27 9.157 3.032 1.335 3.89 2.162 3.89 3.816 0 1.653-1.144 2.607-3.548 2.607-2.346 0-5.322-1.145-6.753-2.099l-1.489 6.614zM380.801 73.97a27.15 27.15 0 00.286-4.006c0-8.204-3.434-15.263-11.619-15.263-8.642 0-13.22 8.013-13.22 16.662 0 9.666 5.094 15.644 13.965 15.644 3.49 0 6.81-.636 9.443-1.781l-1.144-6.36c-2.061.764-4.293 1.209-6.983 1.209-3.835 0-7.097-1.844-7.269-6.105h16.541zm-16.598-6.423c.172-2.734 1.545-6.486 4.807-6.486 3.434 0 4.35 3.688 4.35 6.486h-9.157zM40.08 108.355H27.487v-9.221h13.278v-7.695H19.132v42.862h22.435v-7.695H27.488v-10.684h12.591v-7.567zM64.748 126.67c-1.145.573-2.576.891-4.35.891-4.007 0-7.04-3.18-7.04-8.84 0-5.15 2.69-8.839 6.983-8.839 2.003 0 3.32.445 4.234.827l1.26-6.932c-1.488-.7-3.72-1.145-5.895-1.145-9.615 0-15.052 7.187-15.052 16.471 0 9.857 5.437 15.771 13.907 15.771 2.919 0 5.552-.572 6.868-1.272l-.915-6.931zM80.716 134.938c6.41 0 13.45-4.579 13.45-16.407 0-9.54-5.208-15.962-13.106-15.962-7.956 0-13.737 6.041-13.737 16.343 0 10.048 5.61 16.026 13.336 16.026h.057zm.114-6.741c-3.32 0-4.98-4.134-4.98-9.475 0-4.516 1.26-9.412 4.98-9.412 3.492 0 4.808 4.896 4.808 9.412 0 5.278-1.66 9.475-4.75 9.475h-.058z" fill="#fbbea7" fill-rule="nonzero"/><path d="M99.201 134.3h8.356v-18.251c0-.954.115-1.908.344-2.544.572-1.78 1.888-3.37 3.948-3.37 2.862 0 3.95 2.67 3.95 6.231V134.3h8.356v-18.887c0-8.458-3.663-12.846-9.271-12.846-4.18 0-6.926 2.607-8.128 4.706h-.171l-.401-4.07h-7.212c.114 2.861.23 6.041.23 9.793V134.3zM142.527 134.937c6.41 0 13.45-4.579 13.45-16.407 0-9.54-5.208-15.962-13.107-15.962-7.955 0-13.736 6.041-13.736 16.343 0 10.048 5.609 16.026 13.336 16.026h.057zm.114-6.741c-3.32 0-4.978-4.134-4.978-9.476 0-4.515 1.258-9.411 4.978-9.411 3.492 0 4.808 4.896 4.808 9.411 0 5.279-1.66 9.476-4.75 9.476h-.058zM161.586 134.3h8.184v-18.568c0-.827.058-1.717.287-2.417.572-1.653 1.831-3.243 3.72-3.243 2.69 0 3.605 2.734 3.605 6.168v18.06h8.186v-18.632c0-.827.113-1.78.286-2.416.572-1.845 1.83-3.18 3.662-3.18 2.634 0 3.664 2.67 3.664 6.868v17.36h8.184v-18.76c0-8.711-3.549-12.972-8.757-12.972-1.946 0-3.549.509-4.923 1.399-1.316.827-2.46 2.098-3.434 3.625h-.113c-1.145-3.116-3.72-5.024-7.212-5.024-4.178 0-6.64 2.607-7.898 4.642h-.172l-.4-4.006h-7.098c.115 2.861.23 6.041.23 9.793v21.304zM208.289 134.3h8.356v-31.096h-8.356V134.3zm4.12-34.912c2.634 0 4.408-2.035 4.408-4.706-.057-2.798-1.774-4.77-4.35-4.77-2.633 0-4.407 1.972-4.407 4.77 0 2.671 1.717 4.706 4.293 4.706h.057zM241.6 126.67c-1.146.572-2.576.89-4.35.89-4.007 0-7.04-3.18-7.04-8.84 0-5.15 2.69-8.839 6.983-8.839 2.003 0 3.32.445 4.235.827l1.259-6.932c-1.488-.7-3.72-1.145-5.895-1.145-9.615 0-15.052 7.186-15.052 16.471 0 9.857 5.437 15.771 13.907 15.771 2.919 0 5.552-.572 6.868-1.272l-.916-6.931zM216.562 168.058c0 6.295-2.175 7.885-5.38 7.885-1.488 0-2.805-.254-3.836-.636l-.858 7.568c1.43.572 3.72.89 5.552.89 7.612 0 12.877-3.561 12.877-15.771v-27.727h-8.355v27.79zM243.977 183.766c6.41 0 13.45-4.579 13.45-16.407 0-9.539-5.209-15.962-13.107-15.962-7.955 0-13.736 6.041-13.736 16.344 0 10.047 5.609 16.025 13.335 16.025h.058zm.115-6.74c-3.32 0-4.98-4.134-4.98-9.476 0-4.515 1.26-9.412 4.98-9.412 3.49 0 4.807 4.897 4.807 9.412 0 5.278-1.66 9.475-4.75 9.475h-.057zM287.647 152.033h-8.356v18.95c0 .827-.115 1.654-.344 2.226-.515 1.4-1.717 2.99-3.777 2.99-2.747 0-3.892-2.672-3.892-7.123v-17.043h-8.357v18.442c0 9.221 3.549 13.29 9.1 13.29 4.408 0 6.926-2.734 8.07-4.705h.173l.4 4.07h7.212c-.115-2.67-.23-5.978-.23-9.857v-21.24zM294.744 183.13h8.357v-15.771c0-.954.057-1.78.228-2.417.63-3.116 2.805-4.77 5.495-4.77.915 0 1.545.064 2.175.192v-8.776c-.63-.128-1.03-.191-1.775-.191-2.518 0-5.609 1.844-6.982 6.041h-.23l-.342-5.405h-7.154c.113 2.734.228 5.85.228 9.984v21.113zM315.577 183.13h8.357v-18.251c0-.954.114-1.908.343-2.544.573-1.78 1.889-3.37 3.95-3.37 2.861 0 3.948 2.67 3.948 6.232v17.933h8.357v-18.887c0-8.458-3.663-12.846-9.272-12.846-4.178 0-6.926 2.607-8.127 4.706h-.172l-.4-4.07h-7.212c.114 2.862.228 6.041.228 9.793v21.304zM369.434 164.688c0-7.059-2.46-13.291-11.56-13.291-4.751 0-8.357 1.526-10.189 2.671l1.489 5.978c1.832-1.209 4.464-2.162 7.154-2.162 3.835 0 4.75 2.162 4.75 4.07v.508c-8.814 0-15.338 3.689-15.338 11.829 0 5.087 3.263 9.475 8.527 9.475 3.091 0 5.724-1.272 7.499-3.752h.114l.515 3.116h7.498c-.344-1.844-.459-4.579-.459-7.377v-11.065zm-8.126 7.631c0 .509 0 1.081-.115 1.526-.572 1.972-2.232 3.307-4.12 3.307-1.718 0-3.206-1.208-3.206-3.815 0-3.88 3.491-5.024 7.44-5.024v4.006z" fill="#231f20" fill-rule="nonzero"/><path fill="#231f20" d="M376.417 138.297h8.357v44.833h-8.357z"/><path d="M2.71 0v-21.68h13.55v2.974H7.222v6.05h7.412v2.9H7.222v6.68h9.726V0H2.71z" fill="#fbbea7" fill-rule="nonzero" stroke="#fbbea7" stroke-width=".69" transform="matrix(2 0 0 2 392.68 91.386)"/><path d="M14.575-.352c-1.797.479-3.462.718-4.995.718-2.568 0-4.597-.754-6.086-2.263-1.49-1.509-2.234-3.562-2.234-6.16 0-2.627.766-4.682 2.3-6.167 1.533-1.484 3.652-2.226 6.357-2.226 1.309 0 2.817.21 4.526.63v3.134c-1.777-.576-3.198-.864-4.262-.864-1.299 0-2.344.498-3.135 1.494-.791.996-1.187 2.32-1.187 3.97 0 1.69.428 3.042 1.282 4.058.855 1.015 1.995 1.523 3.421 1.523 1.298 0 2.636-.283 4.013-.849v3.002z" fill="#db0a5b" fill-rule="nonzero" stroke="#db0a5b" stroke-width=".69" transform="matrix(2 0 0 2 426.874 91.386)"/><g fill="#db0a5b" fill-rule="nonzero" stroke="#db0a5b" stroke-width=".69"><path d="M9.463.366c-2.51 0-4.505-.759-5.984-2.278C2-3.43 1.26-5.474 1.26-8.042c0-2.598.744-4.648 2.234-6.152 1.489-1.504 3.513-2.256 6.071-2.256 2.569 0 4.598.752 6.087 2.256 1.489 1.504 2.234 3.545 2.234 6.123 0 2.636-.747 4.702-2.241 6.196C14.15-.381 12.09.366 9.463.366zm.073-2.71c2.49 0 3.735-1.909 3.735-5.727 0-1.748-.329-3.13-.988-4.146-.659-1.015-1.565-1.523-2.718-1.523-1.142 0-2.043.508-2.702 1.523-.659 1.016-.989 2.407-.989 4.175 0 1.748.327 3.135.981 4.16.655 1.026 1.548 1.538 2.681 1.538zM21.87 0v-16.084h4.336v3.032c1.416-2.265 3.242-3.398 5.479-3.398 1.435 0 2.568.454 3.398 1.362.83.908 1.245 2.149 1.245 3.721V0h-4.336v-10.298c0-1.826-.605-2.739-1.816-2.739-1.377 0-2.7.972-3.97 2.915V0H21.87zM48.325.366c-2.51 0-4.504-.759-5.984-2.278-1.479-1.518-2.219-3.562-2.219-6.13 0-2.598.745-4.648 2.234-6.152 1.489-1.504 3.513-2.256 6.072-2.256 2.568 0 4.597.752 6.086 2.256 1.489 1.504 2.234 3.545 2.234 6.123 0 2.636-.747 4.702-2.241 6.196C53.013-.381 50.952.366 48.325.366zm.073-2.71c2.491 0 3.736-1.909 3.736-5.727 0-1.748-.33-3.13-.989-4.146-.659-1.015-1.565-1.523-2.717-1.523-1.143 0-2.044.508-2.703 1.523-.659 1.016-.989 2.407-.989 4.175 0 1.748.327 3.135.982 4.16.654 1.026 1.548 1.538 2.68 1.538zM60.732 0v-16.084h4.161v3.032c1.269-2.265 3.076-3.398 5.42-3.398 1.21 0 2.207.298 2.988.893.781.596 1.26 1.431 1.435 2.505 1.504-2.265 3.321-3.398 5.45-3.398 2.939 0 4.409 1.621 4.409 4.863V0h-4.16v-10.166c0-1.904-.635-2.856-1.905-2.856-1.299 0-2.563.937-3.794 2.812V0h-4.16v-10.166c0-1.914-.639-2.871-1.919-2.871-1.279 0-2.534.942-3.764 2.827V0h-4.161zM89.883 5.786L93.53 0l-5.962-16.084h4.659l3.984 10.752 4.731-10.752h3.296l-9.931 21.87h-4.424zM117.202 0v-21.68h9.331c3.36 0 5.933.891 7.72 2.674 1.787 1.782 2.681 4.353 2.681 7.712 0 3.574-.948 6.35-2.842 8.328C132.197-.989 129.546 0 126.138 0h-8.936zm4.512-3.076h3.369c2.373 0 4.143-.657 5.31-1.97 1.167-1.314 1.751-3.308 1.751-5.984 0-2.071-.469-3.794-1.407-5.171-.644-.947-1.421-1.602-2.329-1.963-.908-.361-2.231-.542-3.97-.542h-2.724v15.63zM148.872-1.729c-1.445 1.397-2.993 2.095-4.643 2.095-1.407 0-2.549-.429-3.428-1.289-.879-.859-1.319-1.973-1.319-3.34 0-1.777.711-3.147 2.132-4.109 1.421-.961 3.454-1.442 6.101-1.442h1.157v-1.465c0-1.67-.952-2.505-2.856-2.505-1.69 0-3.399.478-5.127 1.435v-2.988c1.963-.742 3.906-1.113 5.83-1.113 4.209 0 6.313 1.675 6.313 5.024v7.119c0 1.26.406 1.89 1.216 1.89.147 0 .337-.02.571-.059l.103 2.432c-.918.273-1.729.41-2.432.41-1.777 0-2.92-.698-3.427-2.095h-.191zm0-2.329v-3.266h-1.025c-2.803 0-4.204.879-4.204 2.636 0 .596.202 1.097.607 1.502.406.405.906.608 1.502.608 1.016 0 2.056-.493 3.12-1.48zM166.919-.088c-1.035.303-1.851.454-2.446.454-3.76 0-5.64-1.758-5.64-5.273v-8.467h-1.802v-2.71h1.802v-2.71l4.336-.498v3.208h3.442v2.71h-3.442v7.895c0 1.973.806 2.959 2.417 2.959.371 0 .815-.068 1.333-.205v2.637zM178.667-1.729c-1.445 1.397-2.993 2.095-4.644 2.095-1.406 0-2.548-.429-3.427-1.289-.879-.859-1.319-1.973-1.319-3.34 0-1.777.711-3.147 2.132-4.109 1.421-.961 3.454-1.442 6.101-1.442h1.157v-1.465c0-1.67-.952-2.505-2.856-2.505-1.69 0-3.399.478-5.127 1.435v-2.988c1.962-.742 3.906-1.113 5.83-1.113 4.209 0 6.313 1.675 6.313 5.024v7.119c0 1.26.405 1.89 1.216 1.89.146 0 .337-.02.571-.059l.103 2.432c-.918.273-1.729.41-2.432.41-1.777 0-2.92-.698-3.428-2.095h-.19zm0-2.329v-3.266h-1.025c-2.803 0-4.204.879-4.204 2.636 0 .596.202 1.097.607 1.502.406.405.906.608 1.502.608 1.016 0 2.056-.493 3.12-1.48zM198.311 0v-21.68h8.115c4.404 0 6.606 1.792 6.606 5.376a6.358 6.358 0 01-1.12 3.655c-.747 1.099-1.775 1.941-3.084 2.527L215.918 0h-5.493l-5.376-8.862h-2.49V0h-4.248zm4.248-11.836h1.04c3.271 0 4.907-1.323 4.907-3.97 0-1.933-1.46-2.9-4.38-2.9h-1.567v6.87zM232.104-.542c-2.06.605-4.013.908-5.859.908-2.685 0-4.805-.762-6.357-2.285-1.553-1.523-2.329-3.603-2.329-6.24 0-2.49.71-4.495 2.131-6.013 1.421-1.519 3.298-2.278 5.632-2.278 2.354 0 4.073.742 5.157 2.226 1.084 1.485 1.625 3.833 1.625 7.046h-9.975c.293 3.067 1.977 4.6 5.054 4.6 1.455 0 3.095-.337 4.921-1.011v3.047zM222.07-9.624h5.772c0-2.744-.884-4.116-2.652-4.116-1.796 0-2.836 1.372-3.12 4.116zM236.587 5.786v-21.87h4.336v3.032c1.113-2.265 2.866-3.398 5.259-3.398 1.933 0 3.454.708 4.563 2.124 1.108 1.416 1.662 3.364 1.662 5.845 0 2.695-.625 4.843-1.875 6.445-1.25 1.601-2.925 2.402-5.024 2.402-1.69 0-3.218-.664-4.585-1.992v7.412h-4.336zm4.336-9.99c1.055 1.172 2.178 1.758 3.369 1.758 1.064 0 1.914-.515 2.549-1.546.635-1.03.952-2.404.952-4.123 0-3.291-1.06-4.937-3.179-4.937-1.279 0-2.51.825-3.691 2.476v6.372zM263.218.366c-2.51 0-4.505-.759-5.984-2.278-1.48-1.518-2.219-3.562-2.219-6.13 0-2.598.744-4.648 2.234-6.152 1.489-1.504 3.513-2.256 6.071-2.256 2.569 0 4.597.752 6.087 2.256 1.489 1.504 2.234 3.545 2.234 6.123 0 2.636-.747 4.702-2.242 6.196-1.494 1.494-3.554 2.241-6.181 2.241zm.073-2.71c2.49 0 3.735-1.909 3.735-5.727 0-1.748-.329-3.13-.988-4.146-.66-1.015-1.565-1.523-2.718-1.523-1.142 0-2.043.508-2.702 1.523-.66 1.016-.989 2.407-.989 4.175 0 1.748.327 3.135.981 4.16.655 1.026 1.548 1.538 2.681 1.538zM275.625 0v-16.084h4.336v3.032c1.123-2.265 2.832-3.398 5.127-3.398.273 0 .542.029.806.088v3.867c-.616-.225-1.187-.337-1.714-.337-1.729 0-3.135.874-4.219 2.622V0h-4.336zM297.554-.088c-1.035.303-1.851.454-2.447.454-3.759 0-5.639-1.758-5.639-5.273v-8.467h-1.802v-2.71h1.802v-2.71l4.336-.498v3.208h3.442v2.71h-3.442v7.895c0 1.973.805 2.959 2.417 2.959.371 0 .815-.068 1.333-.205v2.637z" transform="matrix(2 0 0 2 456.968 91.386)"/></g><g><path d="M437.247 142.46l10.13-26.063h5.444l10.13 26.064H457.4l-2.703-6.958h-10.78l-2.703 6.958h-3.966zm8.004-10.418h8.11l-4.073-10.382-4.037 10.382zM465.2 142.46v-27.794h5.227v12.113c1.334-2.74 3.424-4.074 6.308-4.074 2.344 0 4.146.83 5.48 2.524 1.334 1.73 2.019 4.074 2.019 7.03 0 3.244-.757 5.804-2.271 7.75-1.478 1.911-3.497 2.885-6.02 2.885-2.164 0-4.002-.794-5.516-2.38l-.974 1.947H465.2zm5.227-5.046c1.261 1.406 2.595 2.09 4.037 2.09 1.298 0 2.307-.612 3.065-1.838.757-1.225 1.153-2.884 1.153-4.975 0-3.93-1.262-5.912-3.821-5.912-1.55 0-3.028.974-4.434 2.956v7.679zM489.086 114.666h5.227v27.795h-5.227zM508.92 142.894c-2.992 0-5.407-.902-7.173-2.74-1.767-1.803-2.668-4.254-2.668-7.354 0-3.137.901-5.588 2.668-7.39 1.802-1.803 4.254-2.705 7.318-2.705s5.515.902 7.318 2.704c1.766 1.803 2.668 4.254 2.668 7.354 0 3.173-.902 5.66-2.704 7.427-1.767 1.802-4.254 2.704-7.426 2.704zm.109-3.245c2.992 0 4.47-2.307 4.47-6.886 0-2.09-.397-3.749-1.19-4.974-.793-1.226-1.874-1.839-3.244-1.839s-2.452.613-3.245 1.839c-.793 1.225-1.19 2.884-1.19 5.01 0 2.091.397 3.75 1.19 5.011.757 1.226 1.839 1.839 3.209 1.839zM523.978 148.481l.432-3.785c2.163.973 4.182 1.478 6.129 1.478 1.946 0 3.316-.433 4.181-1.262.866-.793 1.298-2.127 1.298-3.965v-2.668c-1.262 2.776-3.388 4.182-6.308 4.182-2.272 0-4.11-.865-5.444-2.596-1.37-1.694-2.055-4.037-2.055-6.957 0-3.1.757-5.552 2.271-7.427 1.514-1.874 3.533-2.776 6.057-2.776 1.982 0 3.785.794 5.48 2.38l.54-1.947h4.686v14.745c0 2.956-.18 5.083-.54 6.38a6.627 6.627 0 01-2.091 3.317c-1.73 1.514-4.182 2.271-7.354 2.271-2.235 0-4.65-.468-7.282-1.37zm12.04-13.23v-7.102c-1.262-1.442-2.595-2.163-3.965-2.163-1.298 0-2.343.613-3.137 1.803-.757 1.19-1.153 2.811-1.153 4.83 0 3.786 1.226 5.66 3.64 5.66 1.695 0 3.21-1.01 4.615-3.028zM571.681 142.46v-3.64c-1.334 2.704-3.46 4.074-6.345 4.074-2.307 0-4.146-.83-5.443-2.56-1.334-1.694-2.02-4.038-2.02-6.994 0-3.244.758-5.84 2.272-7.75 1.478-1.947 3.497-2.885 6.02-2.885 2.02 0 3.858.794 5.516 2.38v-10.419h5.227v27.795h-5.227zm0-14.275c-1.262-1.406-2.596-2.127-4.038-2.127-1.297 0-2.307.613-3.064 1.875-.757 1.225-1.153 2.884-1.153 4.939 0 3.965 1.261 5.948 3.82 5.948 1.551 0 3.03-1.01 4.435-2.992v-7.643zM599.137 141.812c-2.488.721-4.831 1.082-7.03 1.082-3.245 0-5.804-.902-7.643-2.74-1.874-1.839-2.812-4.326-2.812-7.499 0-2.992.865-5.407 2.56-7.21 1.694-1.838 3.965-2.74 6.777-2.74 2.812 0 4.903.866 6.2 2.668 1.299 1.767 1.948 4.615 1.948 8.472h-12.005c.36 3.677 2.38 5.516 6.092 5.516 1.73 0 3.713-.397 5.913-1.226v3.677zm-12.077-10.923h6.957c0-3.28-1.081-4.939-3.208-4.939-2.163 0-3.389 1.658-3.75 4.939zM616.69 142.46v-3.64c-1.333 2.704-3.46 4.074-6.344 4.074-2.307 0-4.146-.83-5.444-2.56-1.334-1.694-2.019-4.038-2.019-6.994 0-3.244.757-5.84 2.272-7.75 1.478-1.947 3.496-2.885 6.02-2.885 2.019 0 3.857.794 5.516 2.38v-10.419h5.227v27.795h-5.227zm0-14.275c-1.261-1.406-2.595-2.127-4.037-2.127-1.298 0-2.307.613-3.064 1.875-.757 1.225-1.154 2.884-1.154 4.939 0 3.965 1.262 5.948 3.821 5.948 1.55 0 3.029-1.01 4.435-2.992v-7.643zM628.392 142.46v-19.322h5.228v19.323h-5.228zm0-22.566v-4.362h5.228v4.362h-5.228zM654.391 142.028c-2.163.577-4.181.866-6.02.866-3.064 0-5.516-.902-7.318-2.704-1.767-1.839-2.668-4.29-2.668-7.427 0-3.136.938-5.623 2.776-7.39 1.839-1.802 4.362-2.668 7.643-2.668 1.55 0 3.352.253 5.407.758v3.749c-2.127-.685-3.821-1.046-5.119-1.046-1.55 0-2.812.613-3.75 1.803-.972 1.19-1.441 2.776-1.441 4.758 0 2.055.54 3.678 1.55 4.903 1.045 1.226 2.415 1.839 4.11 1.839 1.55 0 3.172-.36 4.83-1.046v3.605zM668.784 140.37c-1.73 1.694-3.605 2.524-5.588 2.524-1.695 0-3.064-.505-4.11-1.55-1.045-1.01-1.586-2.38-1.586-4.002 0-2.127.865-3.785 2.56-4.939 1.694-1.154 4.145-1.73 7.318-1.73h1.406v-1.767c0-2.019-1.154-2.992-3.425-2.992-2.055 0-4.074.54-6.165 1.694v-3.569c2.344-.9 4.687-1.334 6.994-1.334 5.083 0 7.607 1.983 7.607 6.02v8.545c0 1.514.468 2.27 1.442 2.27.18 0 .396 0 .684-.071l.145 2.956c-1.118.324-2.091.469-2.92.469-2.163 0-3.533-.83-4.146-2.524h-.216zm0-2.776v-3.93h-1.226c-3.389 0-5.047 1.046-5.047 3.173 0 .721.216 1.298.72 1.803.47.468 1.082.72 1.803.72 1.226 0 2.488-.576 3.75-1.766zM690.481 142.353c-1.262.36-2.235.54-2.956.54-4.506 0-6.777-2.09-6.777-6.344v-10.166h-2.163v-3.245h2.163v-3.244l5.227-.613v3.857h4.11v3.245h-4.11v9.48c0 2.38.973 3.57 2.884 3.57.468 0 .973-.072 1.622-.253v3.173zM710.859 141.812c-2.487.721-4.83 1.082-7.03 1.082-3.244 0-5.804-.902-7.642-2.74-1.875-1.839-2.812-4.326-2.812-7.499 0-2.992.865-5.407 2.56-7.21 1.694-1.838 3.965-2.74 6.777-2.74 2.812 0 4.903.866 6.2 2.668 1.298 1.767 1.947 4.615 1.947 8.472h-12.005c.36 3.677 2.38 5.516 6.093 5.516 1.73 0 3.713-.397 5.912-1.226v3.677zm-12.077-10.923h6.958c0-3.28-1.082-4.939-3.209-4.939-2.163 0-3.388 1.658-3.749 4.939zM728.414 142.46v-3.64c-1.334 2.704-3.46 4.074-6.345 4.074-2.307 0-4.145-.83-5.443-2.56-1.334-1.694-2.02-4.038-2.02-6.994 0-3.244.758-5.84 2.272-7.75 1.478-1.947 3.497-2.885 6.02-2.885 2.02 0 3.858.794 5.516 2.38v-10.419h5.227v27.795h-5.227zm0-14.275c-1.262-1.406-2.596-2.127-4.038-2.127-1.297 0-2.307.613-3.064 1.875-.757 1.225-1.153 2.884-1.153 4.939 0 3.965 1.261 5.948 3.82 5.948 1.551 0 3.03-1.01 4.435-2.992v-7.643zM761.983 142.353c-1.262.36-2.235.54-2.956.54-4.506 0-6.778-2.09-6.778-6.344v-10.166h-2.163v-3.245h2.163v-3.244l5.228-.613v3.857h4.11v3.245h-4.11v9.48c0 2.38.973 3.57 2.884 3.57.468 0 .973-.072 1.622-.253v3.173zM774.718 142.894c-2.992 0-5.407-.902-7.174-2.74-1.766-1.803-2.667-4.254-2.667-7.354 0-3.137.901-5.588 2.667-7.39 1.803-1.803 4.254-2.705 7.319-2.705 3.064 0 5.515.902 7.318 2.704 1.766 1.803 2.667 4.254 2.667 7.354 0 3.173-.9 5.66-2.703 7.427-1.767 1.802-4.254 2.704-7.427 2.704zm.109-3.245c2.992 0 4.47-2.307 4.47-6.886 0-2.09-.397-3.749-1.19-4.974-.793-1.226-1.875-1.839-3.244-1.839-1.37 0-2.452.613-3.245 1.839-.793 1.225-1.19 2.884-1.19 5.01 0 2.091.397 3.75 1.19 5.011.757 1.226 1.839 1.839 3.209 1.839zM810.994 140.37c-1.73 1.694-3.605 2.524-5.588 2.524-1.694 0-3.064-.505-4.11-1.55-1.045-1.01-1.585-2.38-1.585-4.002 0-2.127.865-3.785 2.56-4.939 1.693-1.154 4.145-1.73 7.317-1.73h1.406v-1.767c0-2.019-1.153-2.992-3.425-2.992-2.054 0-4.073.54-6.164 1.694v-3.569c2.343-.9 4.686-1.334 6.994-1.334 5.083 0 7.606 1.983 7.606 6.02v8.545c0 1.514.469 2.27 1.442 2.27.18 0 .397 0 .685-.071l.144 2.956c-1.117.324-2.09.469-2.92.469-2.163 0-3.533-.83-4.145-2.524h-.217zm0-2.776v-3.93h-1.225c-3.39 0-5.047 1.046-5.047 3.173 0 .721.216 1.298.72 1.803.47.468 1.082.72 1.803.72 1.226 0 2.487-.576 3.75-1.766zM827.502 142.46l-7.39-19.322h5.48l5.407 13.951 5.371-13.95h3.785l-7.462 19.322h-5.191zM853.574 140.37c-1.73 1.694-3.605 2.524-5.588 2.524-1.694 0-3.064-.505-4.11-1.55-1.045-1.01-1.585-2.38-1.585-4.002 0-2.127.865-3.785 2.56-4.939 1.693-1.154 4.145-1.73 7.317-1.73h1.406v-1.767c0-2.019-1.153-2.992-3.425-2.992-2.054 0-4.073.54-6.164 1.694v-3.569c2.343-.9 4.686-1.334 6.994-1.334 5.083 0 7.606 1.983 7.606 6.02v8.545c0 1.514.469 2.27 1.442 2.27.18 0 .397 0 .685-.071l.144 2.956c-1.117.324-2.09.469-2.92.469-2.163 0-3.533-.83-4.146-2.524h-.216zm0-2.776v-3.93h-1.226c-3.388 0-5.047 1.046-5.047 3.173 0 .721.217 1.298.721 1.803.47.468 1.082.72 1.803.72 1.226 0 2.487-.576 3.75-1.766zM865.287 142.46v-19.322h5.227v19.323h-5.227zm0-22.566v-4.362h5.227v4.362h-5.227zM877.011 114.666h5.227v27.795h-5.227zM898.214 140.37c-1.73 1.694-3.605 2.524-5.588 2.524-1.694 0-3.064-.505-4.11-1.55-1.045-1.01-1.585-2.38-1.585-4.002 0-2.127.865-3.785 2.56-4.939 1.693-1.154 4.145-1.73 7.317-1.73h1.406v-1.767c0-2.019-1.153-2.992-3.425-2.992-2.054 0-4.073.54-6.164 1.694v-3.569c2.343-.9 4.686-1.334 6.994-1.334 5.083 0 7.606 1.983 7.606 6.02v8.545c0 1.514.469 2.27 1.442 2.27.18 0 .397 0 .685-.071l.144 2.956c-1.117.324-2.09.469-2.92.469-2.163 0-3.533-.83-4.146-2.524h-.216zm0-2.776v-3.93h-1.226c-3.388 0-5.047 1.046-5.047 3.173 0 .721.217 1.298.721 1.803.47.468 1.082.72 1.803.72 1.226 0 2.487-.576 3.75-1.766zM909.927 142.46v-27.794h5.227v12.113c1.334-2.74 3.425-4.074 6.309-4.074 2.343 0 4.146.83 5.48 2.524 1.333 1.73 2.018 4.074 2.018 7.03 0 3.244-.757 5.804-2.27 7.75-1.479 1.911-3.498 2.885-6.021 2.885-2.163 0-4.002-.794-5.516-2.38l-.973 1.947h-4.254zm5.227-5.046c1.262 1.406 2.596 2.09 4.038 2.09 1.298 0 2.307-.612 3.064-1.838.757-1.225 1.154-2.884 1.154-4.975 0-3.93-1.262-5.912-3.822-5.912-1.55 0-3.028.974-4.434 2.956v7.679zM933.813 114.666h5.227v27.795h-5.227zM961.29 141.812c-2.487.721-4.83 1.082-7.029 1.082-3.244 0-5.804-.902-7.643-2.74-1.874-1.839-2.811-4.326-2.811-7.499 0-2.992.865-5.407 2.56-7.21 1.693-1.838 3.965-2.74 6.776-2.74 2.812 0 4.903.866 6.201 2.668 1.298 1.767 1.947 4.615 1.947 8.472h-12.005c.36 3.677 2.38 5.516 6.093 5.516 1.73 0 3.713-.397 5.912-1.226v3.677zm-12.076-10.923h6.958c0-3.28-1.082-4.939-3.209-4.939-2.163 0-3.388 1.658-3.749 4.939zM990.726 142.46v-3.64c-1.334 2.704-3.461 4.074-6.345 4.074-2.307 0-4.146-.83-5.444-2.56-1.333-1.694-2.018-4.038-2.018-6.994 0-3.244.757-5.84 2.27-7.75 1.479-1.947 3.498-2.885 6.021-2.885 2.019 0 3.858.794 5.516 2.38v-10.419h5.227v27.795h-5.227zm0-14.275c-1.262-1.406-2.596-2.127-4.038-2.127-1.298 0-2.307.613-3.064 1.875-.757 1.225-1.154 2.884-1.154 4.939 0 3.965 1.262 5.948 3.822 5.948 1.55 0 3.028-1.01 4.434-2.992v-7.643zM1011.91 140.37c-1.73 1.694-3.605 2.524-5.588 2.524-1.694 0-3.064-.505-4.11-1.55-1.045-1.01-1.586-2.38-1.586-4.002 0-2.127.866-3.785 2.56-4.939s4.146-1.73 7.318-1.73h1.406v-1.767c0-2.019-1.154-2.992-3.425-2.992-2.055 0-4.073.54-6.164 1.694v-3.569c2.343-.9 4.686-1.334 6.993-1.334 5.083 0 7.607 1.983 7.607 6.02v8.545c0 1.514.469 2.27 1.442 2.27.18 0 .397 0 .685-.071l.144 2.956c-1.117.324-2.09.469-2.92.469-2.163 0-3.533-.83-4.146-2.524h-.216zm0-2.776v-3.93h-1.226c-3.388 0-5.047 1.046-5.047 3.173 0 .721.217 1.298.721 1.803.469.468 1.082.72 1.803.72 1.226 0 2.487-.576 3.749-1.766zM1033.607 142.353c-1.262.36-2.235.54-2.956.54-4.507 0-6.778-2.09-6.778-6.344v-10.166h-2.163v-3.245h2.163v-3.244l5.227-.613v3.857h4.11v3.245h-4.11v9.48c0 2.38.974 3.57 2.884 3.57.47 0 .974-.072 1.623-.253v3.173zM1047.714 140.37c-1.73 1.694-3.605 2.524-5.588 2.524-1.694 0-3.064-.505-4.11-1.55-1.045-1.01-1.586-2.38-1.586-4.002 0-2.127.866-3.785 2.56-4.939s4.146-1.73 7.318-1.73h1.406v-1.767c0-2.019-1.154-2.992-3.425-2.992-2.055 0-4.073.54-6.164 1.694v-3.569c2.343-.9 4.686-1.334 6.993-1.334 5.083 0 7.607 1.983 7.607 6.02v8.545c0 1.514.469 2.27 1.442 2.27.18 0 .396 0 .685-.071l.144 2.956c-1.117.324-2.09.469-2.92.469-2.163 0-3.533-.83-4.146-2.524h-.216zm0-2.776v-3.93h-1.226c-3.388 0-5.047 1.046-5.047 3.173 0 .721.217 1.298.721 1.803.469.468 1.082.72 1.803.72 1.226 0 2.487-.576 3.749-1.766z" fill-rule="nonzero"/><g><text font-family="'LucidaGrande-Bold','Lucida Grande',sans-serif" font-weight="600" font-size="18.025" transform="matrix(2 0 0 2 436.85 178.51)">o</text><path d="M461.677 178.51v-19.322h5.228v3.641c1.694-2.74 3.893-4.073 6.56-4.073 1.731 0 3.101.54 4.11 1.622.974 1.081 1.478 2.595 1.478 4.47v13.663h-5.19v-12.365c0-2.2-.722-3.317-2.2-3.317-1.658 0-3.244 1.19-4.758 3.533v12.149h-5.228zM507.22 178.403c-1.261.36-2.235.54-2.956.54-4.506 0-6.777-2.09-6.777-6.344v-10.166h-2.163v-3.245h2.163v-3.244l5.227-.613v3.857h4.11v3.245h-4.11v9.48c0 2.38.974 3.57 2.884 3.57.469 0 .974-.072 1.622-.253v3.173zM511.845 178.51v-27.794h5.227v12.113c1.694-2.74 3.893-4.073 6.56-4.073 1.731 0 3.101.54 4.11 1.622.974 1.081 1.479 2.595 1.479 4.47v13.663h-5.192v-12.365c0-2.2-.72-3.317-2.199-3.317-1.658 0-3.244 1.19-4.758 3.533v12.149h-5.227zM551.274 177.862c-2.488.721-4.83 1.082-7.03 1.082-3.244 0-5.804-.902-7.643-2.74-1.874-1.839-2.811-4.326-2.811-7.499 0-2.992.865-5.407 2.56-7.21 1.693-1.838 3.965-2.74 6.776-2.74 2.812 0 4.903.866 6.201 2.668 1.298 1.767 1.947 4.615 1.947 8.472h-12.005c.36 3.677 2.38 5.516 6.093 5.516 1.73 0 3.713-.397 5.912-1.226v3.677zm-12.077-10.923h6.958c0-3.28-1.082-4.939-3.209-4.939-2.163 0-3.388 1.658-3.749 4.939zM568.525 178.51v-26.063h9.084c3.173 0 5.444.54 6.814 1.622 1.334 1.045 2.019 2.812 2.019 5.3 0 2.811-.902 5.01-2.74 6.597-1.803 1.55-4.326 2.343-7.607 2.343h-2.235v10.202h-5.335zm5.335-13.77h1.046c1.874 0 3.316-.433 4.398-1.298 1.081-.865 1.622-2.055 1.622-3.533 0-2.595-1.658-3.893-4.975-3.893h-2.09v8.724zM598.745 178.944c-2.992 0-5.408-.902-7.174-2.74-1.767-1.803-2.668-4.254-2.668-7.354 0-3.137.901-5.588 2.668-7.39 1.802-1.803 4.254-2.704 7.318-2.704s5.516.9 7.318 2.703c1.767 1.803 2.668 4.254 2.668 7.354 0 3.173-.901 5.66-2.704 7.427-1.766 1.802-4.254 2.704-7.426 2.704zm.108-3.245c2.992 0 4.47-2.307 4.47-6.886 0-2.09-.396-3.749-1.19-4.974-.793-1.226-1.874-1.839-3.244-1.839s-2.451.613-3.245 1.839c-.793 1.225-1.19 2.884-1.19 5.01 0 2.091.397 3.75 1.19 5.011.757 1.226 1.839 1.839 3.209 1.839zM613.658 178.51v-19.322h5.227v3.641c1.334-2.74 3.389-4.073 6.164-4.073.325 0 .65.036.974.108v4.614c-.757-.252-1.442-.396-2.091-.396-2.055 0-3.75 1.045-5.047 3.172v12.257h-5.227zM640.031 178.403c-1.261.36-2.235.54-2.956.54-4.506 0-6.777-2.09-6.777-6.344v-10.166h-2.163v-3.245h2.163v-3.244l5.227-.613v3.857h4.11v3.245h-4.11v9.48c0 2.38.973 3.57 2.884 3.57.469 0 .973-.072 1.622-.253v3.173zM656.624 178.51v-3.64c-1.694 2.704-3.893 4.074-6.597 4.074-1.73 0-3.064-.541-4.074-1.623-1.009-1.081-1.514-2.595-1.514-4.47v-13.663h5.228v12.365c0 2.2.72 3.28 2.199 3.28 1.658 0 3.244-1.153 4.758-3.496v-12.149h5.191v19.323h-5.19zM668.475 184.531l.433-3.785c2.163.973 4.182 1.478 6.129 1.478 1.946 0 3.316-.433 4.181-1.262.866-.793 1.298-2.127 1.298-3.965v-2.668c-1.262 2.776-3.389 4.182-6.309 4.182-2.27 0-4.11-.865-5.443-2.596-1.37-1.694-2.055-4.037-2.055-6.957 0-3.1.757-5.552 2.271-7.427 1.514-1.874 3.533-2.775 6.057-2.775 1.982 0 3.785.793 5.48 2.379l.54-1.947h4.686v14.745c0 2.956-.18 5.083-.54 6.38a6.627 6.627 0 01-2.091 3.317c-1.73 1.514-4.182 2.271-7.354 2.271-2.236 0-4.65-.468-7.283-1.37zm12.041-13.23v-7.102c-1.262-1.442-2.595-2.163-3.965-2.163-1.298 0-2.344.613-3.137 1.803-.757 1.19-1.153 2.811-1.153 4.83 0 3.786 1.225 5.66 3.64 5.66 1.695 0 3.21-1.01 4.615-3.028zM704.08 178.51v-3.64c-1.695 2.704-3.894 4.074-6.597 4.074-1.73 0-3.065-.541-4.074-1.623-1.01-1.081-1.514-2.595-1.514-4.47v-13.663h5.227v12.365c0 2.2.721 3.28 2.2 3.28 1.657 0 3.244-1.153 4.758-3.496v-12.149h5.191v19.323h-5.191zM731.541 177.862c-2.487.721-4.83 1.082-7.03 1.082-3.244 0-5.804-.902-7.642-2.74-1.875-1.839-2.812-4.326-2.812-7.499 0-2.992.865-5.407 2.56-7.21 1.694-1.838 3.965-2.74 6.777-2.74 2.812 0 4.903.866 6.2 2.668 1.298 1.767 1.947 4.615 1.947 8.472h-12.005c.36 3.677 2.38 5.516 6.093 5.516 1.73 0 3.713-.397 5.912-1.226v3.677zm-12.077-10.923h6.958c0-3.28-1.082-4.939-3.209-4.939-2.163 0-3.388 1.658-3.749 4.939zM736.406 177.898v-3.821c2.596 1.081 4.795 1.622 6.634 1.622 2.127 0 3.208-.721 3.208-2.199 0-.937-.901-1.766-2.668-2.451l-1.73-.721c-1.91-.757-3.28-1.587-4.11-2.488-.829-.901-1.225-1.983-1.225-3.316 0-1.803.685-3.245 2.09-4.254 1.37-1.01 3.353-1.514 5.84-1.514 1.587 0 3.461.216 5.624.684v3.642c-2.09-.721-3.82-1.082-5.19-1.082-2.164 0-3.245.685-3.245 2.019 0 .865.793 1.622 2.415 2.235l1.514.577c2.235.865 3.821 1.73 4.723 2.595.865.866 1.334 2.02 1.334 3.389 0 1.839-.758 3.317-2.272 4.434-1.514 1.154-3.46 1.695-5.912 1.695-2.307 0-4.65-.361-7.03-1.046zM773.049 177.862c-2.487.721-4.83 1.082-7.03 1.082-3.244 0-5.804-.902-7.642-2.74-1.875-1.839-2.812-4.326-2.812-7.499 0-2.992.865-5.407 2.56-7.21 1.694-1.838 3.965-2.74 6.777-2.74 2.812 0 4.902.866 6.2 2.668 1.298 1.767 1.947 4.615 1.947 8.472h-12.005c.36 3.677 2.38 5.516 6.093 5.516 1.73 0 3.713-.397 5.912-1.226v3.677zm-12.077-10.923h6.958c0-3.28-1.082-4.939-3.209-4.939-2.163 0-3.388 1.658-3.749 4.939zM806.053 177.862c-2.488.721-4.83 1.082-7.03 1.082-3.244 0-5.804-.902-7.642-2.74-1.875-1.839-2.812-4.326-2.812-7.499 0-2.992.865-5.407 2.56-7.21 1.694-1.838 3.965-2.74 6.777-2.74 2.812 0 4.902.866 6.2 2.668 1.298 1.767 1.947 4.615 1.947 8.472h-12.005c.36 3.677 2.38 5.516 6.093 5.516 1.73 0 3.713-.397 5.912-1.226v3.677zm-12.077-10.923h6.958c0-3.28-1.082-4.939-3.209-4.939-2.163 0-3.388 1.658-3.749 4.939zM825.697 178.078c-2.163.577-4.182.866-6.02.866-3.065 0-5.516-.902-7.319-2.704-1.766-1.839-2.667-4.29-2.667-7.427 0-3.136.937-5.623 2.776-7.39 1.838-1.802 4.362-2.667 7.642-2.667 1.55 0 3.353.252 5.408.757v3.749c-2.127-.685-3.822-1.046-5.12-1.046-1.55 0-2.811.613-3.749 1.803-.973 1.19-1.442 2.776-1.442 4.758 0 2.055.541 3.678 1.55 4.903 1.046 1.226 2.416 1.839 4.11 1.839 1.55 0 3.173-.36 4.83-1.046v3.605zM838.72 178.944c-2.992 0-5.407-.902-7.174-2.74-1.766-1.803-2.667-4.254-2.667-7.354 0-3.137.9-5.588 2.667-7.39 1.803-1.803 4.254-2.704 7.319-2.704 3.064 0 5.515.9 7.318 2.703 1.766 1.803 2.667 4.254 2.667 7.354 0 3.173-.9 5.66-2.703 7.427-1.767 1.802-4.254 2.704-7.427 2.704zm.108-3.245c2.993 0 4.47-2.307 4.47-6.886 0-2.09-.396-3.749-1.189-4.974-.793-1.226-1.875-1.839-3.244-1.839-1.37 0-2.452.613-3.245 1.839-.793 1.225-1.19 2.884-1.19 5.01 0 2.091.397 3.75 1.19 5.011.757 1.226 1.839 1.839 3.208 1.839zM853.633 178.51v-19.322h5.227v3.641c1.695-2.74 3.894-4.073 6.561-4.073 1.73 0 3.1.54 4.11 1.622.973 1.081 1.478 2.595 1.478 4.47v13.663h-5.191v-12.365c0-2.2-.721-3.317-2.2-3.317-1.657 0-3.244 1.19-4.758 3.533v12.149h-5.227zM885.42 178.944c-2.992 0-5.407-.902-7.174-2.74-1.766-1.803-2.667-4.254-2.667-7.354 0-3.137.9-5.588 2.667-7.39 1.803-1.803 4.254-2.704 7.318-2.704 3.065 0 5.516.9 7.319 2.703 1.766 1.803 2.667 4.254 2.667 7.354 0 3.173-.901 5.66-2.703 7.427-1.767 1.802-4.254 2.704-7.427 2.704zm.108-3.245c2.993 0 4.47-2.307 4.47-6.886 0-2.09-.396-3.749-1.189-4.974-.793-1.226-1.875-1.839-3.245-1.839s-2.45.613-3.244 1.839c-.793 1.225-1.19 2.884-1.19 5.01 0 2.091.397 3.75 1.19 5.011.757 1.226 1.839 1.839 3.208 1.839zM900.333 178.51v-19.322h5.01v3.641c1.515-2.74 3.714-4.073 6.526-4.073 1.442 0 2.632.36 3.569 1.045.937.721 1.514 1.73 1.73 3.028 1.803-2.74 4.002-4.073 6.561-4.073 3.533 0 5.3 1.946 5.3 5.84v13.915h-5.011V166.29c0-2.271-.757-3.425-2.271-3.425-1.587 0-3.1 1.118-4.579 3.389v12.257h-5.01V166.29c0-2.307-.758-3.46-2.308-3.46-1.514 0-3.028 1.153-4.506 3.424v12.257h-5.011zM935.363 185.469l4.398-6.958-7.174-19.323h5.588l4.795 12.906 5.695-12.906h3.966l-11.933 26.28h-5.335zM954.687 172.851h5.66v5.66h-5.66z" fill-rule="nonzero"/></g></g><g transform="matrix(1.5 0 0 1.5 924.482 -10.56)"><use xlink:href="#_Image3" width="54" height="74"/></g><defs><linearGradient id="_Linear1" x1="0" y1="0" x2="1" y2="0" gradientUnits="userSpaceOnUse" gradientTransform="rotate(-90 .316 0)"><stop offset="0" stop-color="#010"/><stop offset=".9" stop-color="#007c5d"/><stop offset="1" stop-color="#008060"/></linearGradient><linearGradient id="_Linear2" x1="0" y1="0" x2="1" y2="0" gradientUnits="userSpaceOnUse" gradientTransform="rotate(90 .325 0)"><stop offset="0" stop-color="#010"/><stop offset=".9" stop-color="#007c5d"/><stop offset="1" stop-color="#008060"/></linearGradient></defs></svg>