<svg viewBox="0 0 1155 194" xmlns="http://www.w3.org/2000/svg" xmlns:xlink="http://www.w3.org/1999/xlink" fill-rule="evenodd" clip-rule="evenodd" stroke-miterlimit="10"><g transform="scale(.62787 .26123)"><path fill="none" d="M0 0h1839.5v740.5H0z"/><clipPath id="a"><path d="M0 0h1839.5v740.5H0z"/></clipPath><g clip-path="url(#a)"><path fill="#ed1c24" d="M-27.2-40.424h703.305v784.056H-27.2z"/><path fill="url(#_Linear2)" d="M-.134-.678h1.258v1H-.134z" transform="matrix(146.073 0 0 -351.087 -7.574 463.538)"/><path fill="url(#_Linear3)" d="M-.037-.326h1.078V.678H-.037z" transform="matrix(162.044 0 0 -389.473 162.63 223.789)"/><path fill="#008060" d="M-27.2 686.75h183.792v1796.26H-27.2z"/><path d="M169.676 330.876h13.217v-59.643c1.095.487 2.462.73 4.012.73 7.2 0 14.037-5.355 18.504-16.797 3.464-9.25 5.47-22.64 5.47-39.194 0-15.336-2.28-28.969-6.108-37.246-4.102-9.25-10.118-13.145-18.231-13.145-7.293 0-12.853 1.46-16.864 3.408v161.887zm13.217-136.57c.912-.73 2.552-1.217 4.831-1.217 6.564 0 9.937 9.738 9.937 24.587 0 16.067-4.011 26.535-10.939 26.535-1.64 0-2.825-.243-3.829-.73v-49.175zM236.495 333.31c10.208 0 21.421-17.528 21.421-62.808 0-36.516-8.296-61.103-20.875-61.103-12.671 0-21.878 23.127-21.878 62.564 0 38.463 8.933 61.347 21.24 61.347h.092zm.18-25.805c-5.286 0-7.929-15.823-7.929-36.272 0-17.285 2.004-36.03 7.93-36.03 5.561 0 7.657 18.745 7.657 36.03 0 20.205-2.644 36.272-7.565 36.272h-.092zM266.85 330.876h13.31v-60.373c0-3.652.09-6.817.363-9.25 1.003-11.93 4.467-18.259 8.752-18.259 1.458 0 2.46.244 3.463.73V210.13c-1.003-.487-1.64-.73-2.826-.73-4.01 0-8.933 7.06-11.12 23.126h-.365l-.547-20.692h-11.394c.18 10.468.363 22.396.363 38.22v80.822zM303.86 189.924v21.91h-5.743v25.804h5.743v51.122c0 17.284 1.275 27.995 3.829 34.812 2.186 5.842 5.742 9.494 9.935 9.494 3.646 0 6.746-1.217 8.477-2.922l-.09-27.021c-1.277.73-2.097.973-3.83.973-3.646 0-5.196-5.599-5.196-19.962v-46.496h9.572v-25.805h-9.572v-31.89l-13.125 9.98zM373.868 211.833h-13.309v72.545c0 3.165-.182 6.33-.546 8.52-.821 5.356-2.735 11.442-6.017 11.442-4.375 0-6.199-10.224-6.199-27.265v-65.242H334.49v70.597c0 35.3 5.65 50.88 14.493 50.88 7.02 0 11.031-10.469 12.854-18.015h.273l.639 15.58h11.485c-.183-10.225-.365-22.883-.365-37.733v-81.309zM424.552 248.106c0-16.797.182-27.509.365-36.273H413.43l-.546 13.633h-.183c-2.096-9.494-5.652-16.067-11.03-16.067-10.209 0-18.686 24.1-18.686 62.807 0 32.134 6.654 57.695 17.41 57.695 4.558 0 8.57-5.112 10.848-14.362h.183v7.546c0 20.936-4.194 30.673-10.666 30.673-4.65 0-8.933-3.895-11.577-7.79l-2.644 27.022c3.829 5.112 9.208 8.034 14.585 8.034 6.564 0 12.671-3.652 17.047-14.12 4.65-11.198 6.38-28.482 6.38-52.096v-66.702zm-13.309 32.62c0 3.165-.092 6.817-.455 9.738-.912 7.79-3.374 12.903-6.29 12.903-5.105 0-8.113-13.146-8.113-32.134 0-20.936 3.372-34.082 8.204-34.082 3.281 0 5.47 6.086 6.381 14.363.181 2.191.273 4.869.273 7.303v21.91zM474.778 211.833H461.47v72.545c0 3.165-.183 6.33-.546 8.52-.821 5.356-2.735 11.442-6.018 11.442-4.375 0-6.198-10.224-6.198-27.265v-65.242H435.4v70.597c0 35.3 5.65 50.88 14.493 50.88 7.019 0 11.03-10.469 12.854-18.015h.273l.638 15.58h11.485c-.182-10.225-.365-22.883-.365-37.733v-81.309zM523 283.162c.183-2.922.456-8.277.456-15.337 0-31.404-5.47-58.425-18.504-58.425-13.764 0-21.057 30.673-21.057 63.78 0 37.003 8.112 59.887 22.242 59.887 5.561 0 10.848-2.435 15.04-6.817l-1.823-24.344c-3.28 2.922-6.837 4.626-11.12 4.626-6.107 0-11.304-7.06-11.577-23.37H523zm-26.435-24.588c.275-10.468 2.462-24.83 7.658-24.83 5.47 0 6.927 14.119 6.927 24.83h-14.585zM529.655 325.033c3.009 4.869 7.93 8.034 13.127 8.034 11.76 0 18.231-15.337 18.231-38.22 0-16.067-3.281-27.996-11.121-36.273-5.105-5.599-6.655-8.52-6.655-14.12 0-5.842 1.824-9.737 5.105-9.737 3.373 0 6.655 3.408 8.569 6.086l2.37-24.83c-2.643-3.409-6.745-6.573-11.486-6.573-10.483 0-17.137 16.797-17.137 38.706 0 13.146 2.918 26.292 11.577 35.056 4.831 5.112 6.199 8.277 6.199 14.606 0 6.33-1.823 9.981-5.652 9.981-3.737 0-8.478-4.382-10.756-8.034l-2.371 25.318zM606.5 283.162c.182-2.922.456-8.277.456-15.337 0-31.404-5.469-58.425-18.506-58.425-13.764 0-21.056 30.673-21.056 63.78 0 37.003 8.113 59.887 22.243 59.887 5.56 0 10.846-2.435 15.04-6.817l-1.823-24.344c-3.282 2.922-6.836 4.626-11.121 4.626-6.108 0-11.304-7.06-11.577-23.37H606.5zm-26.435-24.588c.273-10.468 2.46-24.83 7.657-24.83 5.469 0 6.928 14.119 6.928 24.83h-14.585zM63.834 414.789H43.78v-35.3H64.93v-29.455H30.472v164.078h35.732v-29.456H43.78v-40.898h20.054v-28.97zM103.124 484.903c-1.823 2.191-4.102 3.408-6.929 3.408-6.38 0-11.212-12.172-11.212-33.838 0-19.718 4.285-33.838 11.121-33.838 3.19 0 5.287 1.704 6.745 3.165l2.006-26.535c-2.37-2.678-5.925-4.382-9.389-4.382-15.314 0-23.974 27.509-23.974 63.05 0 37.734 8.66 60.374 22.15 60.374 4.65 0 8.843-2.191 10.94-4.87l-1.458-26.534zM128.556 516.55c10.21 0 21.421-17.527 21.421-62.807 0-36.516-8.294-61.103-20.874-61.103-12.671 0-21.877 23.126-21.877 62.563 0 38.464 8.933 61.347 21.239 61.347h.09zm.182-25.804c-5.287 0-7.93-15.824-7.93-36.273 0-17.284 2.005-36.029 7.93-36.029 5.562 0 7.658 18.745 7.658 36.03 0 20.205-2.644 36.272-7.566 36.272h-.092z" fill="#fbbea7" fill-rule="nonzero"/><path d="M157.997 514.107h13.308V444.24c0-3.651.183-7.303.548-9.737.912-6.816 3.008-12.902 6.29-12.902 4.557 0 6.29 10.224 6.29 23.857v68.65h13.308v-72.302c0-32.377-5.833-49.175-14.766-49.175-6.656 0-11.031 9.981-12.945 18.015h-.273l-.638-15.58h-11.487c.183 10.955.365 23.127.365 37.49v81.551zM227.003 516.546c10.208 0 21.422-17.528 21.422-62.807 0-36.516-8.296-61.104-20.876-61.104-12.671 0-21.877 23.127-21.877 62.564 0 38.464 8.933 61.347 21.239 61.347h.092zm.181-25.805c-5.287 0-7.93-15.823-7.93-36.272 0-17.284 2.005-36.03 7.93-36.03 5.561 0 7.658 18.746 7.658 36.03 0 20.205-2.644 36.272-7.566 36.272h-.092zM257.358 514.112h13.035v-71.084c0-3.165.092-6.573.456-9.251.911-6.33 2.917-12.415 5.925-12.415 4.284 0 5.742 10.467 5.742 23.613v69.137h13.037v-71.328c0-3.165.181-6.816.456-9.25.911-7.06 2.915-12.172 5.833-12.172 4.194 0 5.834 10.224 5.834 26.291v66.459h13.035v-71.815c0-33.35-5.652-49.661-13.946-49.661-3.1 0-5.652 1.947-7.84 5.355-2.097 3.165-3.92 8.034-5.47 13.876h-.181c-1.823-11.928-5.925-19.231-11.487-19.231-6.654 0-10.573 9.98-12.579 17.77h-.273l-.639-15.336h-11.304c.183 10.955.366 23.127.366 37.49v81.552zM331.74 514.111h13.31V395.07h-13.31v119.042zm6.564-133.648c4.194 0 7.02-7.79 7.02-18.014-.09-10.712-2.826-18.258-6.928-18.258-4.194 0-7.019 7.546-7.019 18.258 0 10.224 2.735 18.014 6.837 18.014h.09zM384.794 484.899c-1.823 2.19-4.102 3.408-6.927 3.408-6.381 0-11.212-12.172-11.212-33.838 0-19.719 4.285-33.838 11.121-33.838 3.19 0 5.287 1.704 6.745 3.165l2.006-26.535c-2.37-2.678-5.925-4.382-9.39-4.382-15.313 0-23.973 27.508-23.973 63.05 0 37.734 8.66 60.373 22.15 60.373 4.65 0 8.843-2.19 10.94-4.868l-1.46-26.535zM344.917 643.334c0 24.1-3.464 30.187-8.57 30.187-2.369 0-4.465-.974-6.107-2.435l-1.367 28.97c2.278 2.19 5.925 3.408 8.842 3.408 12.124 0 20.51-13.633 20.51-60.373V536.95h-13.308v106.383zM388.582 703.467c10.21 0 21.421-17.527 21.421-62.807 0-36.516-8.296-61.103-20.875-61.103-12.67 0-21.878 23.126-21.878 62.564 0 38.463 8.933 61.346 21.24 61.346h.092zm.182-25.804c-5.288 0-7.93-15.824-7.93-36.273 0-17.284 2.005-36.029 7.93-36.029 5.56 0 7.656 18.745 7.656 36.03 0 20.205-2.642 36.272-7.565 36.272h-.09zM458.134 581.99h-13.309v72.546c0 3.164-.182 6.329-.547 8.52-.82 5.356-2.735 11.442-6.016 11.442-4.375 0-6.199-10.225-6.199-27.266v-65.241h-13.31v70.597c0 35.299 5.653 50.879 14.495 50.879 7.02 0 11.03-10.468 12.853-18.015h.274l.637 15.58H458.5c-.183-10.224-.365-22.883-.365-37.733v-81.308zM469.438 701.032h13.31V640.66c0-3.651.09-6.816.363-9.25 1.004-11.929 4.467-18.258 8.752-18.258 1.458 0 2.46.243 3.464.73v-33.595c-1.004-.486-1.64-.73-2.827-.73-4.01 0-8.933 7.06-11.12 23.127h-.365l-.547-20.692h-11.394c.181 10.467.364 22.396.364 38.22v80.821zM502.62 701.032h13.309v-69.867c0-3.651.181-7.303.546-9.737.912-6.817 3.008-12.903 6.29-12.903 4.558 0 6.29 10.225 6.29 23.857v68.65h13.31v-72.301c0-32.378-5.835-49.175-14.768-49.175-6.654 0-11.031 9.981-12.945 18.015h-.273l-.638-15.58h-11.486c.182 10.954.364 23.126.364 37.49v81.551zM588.397 630.436c0-27.022-3.92-50.88-18.413-50.88-7.567 0-13.31 5.843-16.227 10.225l2.371 22.883c2.918-4.625 7.11-8.276 11.395-8.276 6.108 0 7.566 8.276 7.566 15.58v1.947c-14.04 0-24.43 14.12-24.43 45.28 0 19.475 5.196 36.272 13.581 36.272 4.923 0 9.116-4.869 11.943-14.363h.182l.82 11.929h11.942c-.548-7.06-.73-17.528-.73-28.24v-42.357zm-12.943 29.212c0 1.948 0 4.139-.183 5.843-.911 7.546-3.556 12.659-6.563 12.659-2.735 0-5.105-4.626-5.105-14.607 0-14.85 5.56-19.231 11.85-19.231v15.336z" fill="#231f20" fill-rule="nonzero"/><path fill="#231f20" d="M599.518 529.408h13.31v171.625h-13.31z"/><g font-family="'LucidaGrande-Bold','Lucida Grande',sans-serif" font-weight="600" font-size="30" stroke-width=".69"><text x="199.35" y="125.256" fill="#fbbea7" stroke="#fbbea7" transform="matrix(3.18539 0 0 7.65612 -9.588 -609.144)">E</text><text x="216.447" y="125.256" fill="#db0a5b" stroke="#db0a5b" transform="matrix(3.18539 0 0 7.65612 -9.588 -609.144)">c<tspan x="231.494px 249.734px 268.516px 286.756px 314.927px 331.497px 340.465px 363.334px 380.05px 391.288px 408.004px 416.972px 436.75px 453.408px 472.365px 490.605px 503.323px" y="125.256px 125.256px 125.256px 125.256px 125.256px 125.256px 125.256px 125.256px 125.256px 125.256px 125.256px 125.256px 125.256px 125.256px 125.256px 125.256px 125.256px">onomy Data Report</tspan></text></g><g font-family="'LucidaGrande-Bold','Lucida Grande',sans-serif" font-weight="600" font-size="18.025"><text x="355.58" y="146.043" transform="matrix(3.18539 0 0 7.65612 -436.89 -572.774)">A<tspan x="368.132px 373.41px 384.632px 389.773px 400.564px 411.733px 417.012px 428.234px 438.074px 449.297px 454.437px 463.31px 473.186px 479.77px 489.61px 500.832px 506.111px 512.695px 523.486px 528.764px 538.64px 548.612px 558.488px 563.629px 568.769px 578.645px 589.867px 595.008px 604.849px 610.127px 621.349px 631.225px 637.809px" y="146.043px 146.043px 146.043px 146.043px 146.043px 146.043px 146.043px 146.043px 146.043px 146.043px 146.043px 146.043px 146.043px 146.043px 146.043px 146.043px 146.043px 146.043px 146.043px 146.043px 146.043px 146.043px 146.043px 146.043px 146.043px 146.043px 146.043px 146.043px 146.043px 146.043px 146.043px 146.043px 146.043px"> blog dedicated to available data</tspan></text><text x="355.58" y="164.068" transform="matrix(3.18539 0 0 7.65612 -436.89 -572.774)">o<tspan x="366.371px 377.488px 382.766px 389.35px 400.467px 410.308px 415.586px 425.919px 436.71px 444.183px 450.767px 461.884px 473.054px 484.17px 494.011px 503.482px 513.322px 518.6px 528.441px 537.313px 548.104px 559.221px 570.012px 586.77px 596.558px" y="164.068px 164.068px 164.068px 164.068px 164.068px 164.068px 164.068px 164.068px 164.068px 164.068px 164.068px 164.068px 164.068px 164.068px 164.068px 164.068px 164.068px 164.068px 164.068px 164.068px 164.068px 164.068px 164.068px 164.068px 164.068px">n the Portuguese economy.</tspan></text></g><use xlink:href="#_Image4" width="54" height="74" transform="matrix(2.38904 0 0 5.74209 1472.42 -40.424)"/></g></g><defs><linearGradient id="_Linear2" x1="0" y1="0" x2="1" y2="0" gradientUnits="userSpaceOnUse" gradientTransform="matrix(0 -1 -1 0 .316 .316)"><stop offset="0" stop-color="#010"/><stop offset=".9" stop-color="#007c5d"/><stop offset="1" stop-color="#008060"/></linearGradient><linearGradient id="_Linear3" x1="0" y1="0" x2="1" y2="0" gradientUnits="userSpaceOnUse" gradientTransform="matrix(0 1 1 0 .325 -.325)"><stop offset="0" stop-color="#010"/><stop offset=".9" stop-color="#007c5d"/><stop offset="1" stop-color="#008060"/></linearGradient></defs></svg>